<svg width="24" height="24" viewBox="0 0 24 24" fill="none" xmlns="http://www.w3.org/2000/svg">
<path d="M18.1615 3.56464L18.1616 3.56464C18.5206 3.46205 18.8049 3.38116 19.0312 3.3349C19.261 3.28792 19.4674 3.2681 19.6565 3.31709L19.7817 2.83403L19.6565 3.31709C20.0959 3.43096 20.4391 3.77413 20.553 4.21357C20.602 4.40264 20.5821 4.60903 20.5352 4.83887C20.4889 5.06521 20.408 5.34948 20.3054 5.7085L20.3054 5.70852L16.3328 19.6126L16.8136 19.7499L16.3328 19.6126C16.2039 20.0638 16.1027 20.417 16.0055 20.6808C15.9087 20.9433 15.8007 21.1637 15.6345 21.3066C15.2557 21.6322 14.7194 21.7011 14.2707 21.4817C14.0738 21.3855 13.9136 21.1995 13.7537 20.97C13.593 20.7393 13.4057 20.4231 13.167 20.0191L12.7366 20.2734L13.167 20.019L10.2628 15.1041C10.0653 14.7701 9.97635 14.6203 9.87222 14.486L9.49323 14.7798L9.87222 14.486C9.73065 14.3034 9.56665 14.1394 9.38409 13.9979L9.38408 13.9978C9.24979 13.8937 9.1 13.8047 8.76592 13.6073L3.85104 10.7031L3.85103 10.7031C3.44696 10.4643 3.1308 10.2771 2.9001 10.1164L2.65341 10.4705L2.9001 10.1164C2.67058 9.9565 2.4846 9.79624 2.38838 9.59941L1.93918 9.819L2.38838 9.59941C2.16899 9.15064 2.23786 8.61433 2.56351 8.23554C2.70634 8.0694 2.92677 7.96133 3.18923 7.86461C3.45306 7.76739 3.80626 7.66614 4.25756 7.53721L4.25757 7.53721L18.1615 3.56464ZM19.567 3.81136C19.5169 3.79569 19.4646 3.788 19.4121 3.78858C19.3602 3.78915 19.2748 3.79545 19.1313 3.82477C18.9221 3.86754 18.6509 3.94484 18.2715 4.05323L4.42368 8.00976C3.95113 8.14477 3.61012 8.24238 3.36212 8.33377C3.18574 8.39876 3.09832 8.4467 3.05549 8.47201C2.99741 8.50633 2.94687 8.55206 2.90692 8.60644C2.75394 8.81467 2.71895 9.08718 2.81436 9.3273C2.83927 9.39001 2.87661 9.44702 2.92414 9.49491C2.95918 9.53021 3.03166 9.59868 3.1859 9.70613C3.40277 9.85722 3.70806 10.0378 4.13117 10.2878L9.05825 13.1993L9.05832 13.1993C9.23985 13.3065 9.37487 13.3864 9.49242 13.463C9.69045 13.592 9.95177 13.5647 10.1189 13.3976L13.5511 9.96537C13.6487 9.86774 13.807 9.86774 13.9047 9.96537C14.0023 10.063 14.0023 10.2213 13.9047 10.3189L10.4724 13.7512C10.3053 13.9183 10.278 14.1796 10.4071 14.3776C10.4836 14.4952 10.5635 14.6302 10.6707 14.8117L10.6708 14.8118L13.5822 19.7389C13.8323 20.162 14.0128 20.4673 14.1639 20.6842C14.2714 20.8384 14.3399 20.9109 14.3752 20.9459C14.4231 20.9935 14.4801 21.0308 14.5428 21.0557C14.7829 21.1511 15.0554 21.1161 15.2636 20.9632C15.318 20.9232 15.3638 20.8726 15.3981 20.8145C15.4234 20.7717 15.4713 20.6843 15.5363 20.5079C15.6277 20.2599 15.7253 19.9189 15.8603 19.4464L19.8168 5.59854C19.9252 5.21917 20.0025 4.94801 20.0453 4.73875L19.5554 4.63861L20.0453 4.73874C20.0746 4.59531 20.0809 4.50982 20.0815 4.45791C20.0821 4.40543 20.0744 4.35318 20.0587 4.30309C19.9853 4.06853 19.8015 3.88477 19.567 3.81136Z" fill="#FEF4F4" stroke="#FEF4F4" stroke-linecap="round" stroke-linejoin="round"/>
</svg>
