<svg width="130" height="48" viewBox="0 0 130 48" fill="none" xmlns="http://www.w3.org/2000/svg">
<rect width="130" height="48" rx="15" fill="#FEF4F4"/>
<g clip-path="url(#clip0_39_47)">
<path d="M28.773 12.012C28.722 11.955 26.8845 12.0345 25.2855 13.77C23.6865 15.504 23.9325 17.493 23.9685 17.544C24.0045 17.595 26.2485 17.6745 27.681 15.657C29.1135 13.6395 28.824 12.0705 28.773 12.012ZM33.744 29.6115C33.672 29.4675 30.2565 27.7605 30.5745 24.4785C30.8925 21.195 33.087 20.295 33.1215 20.1975C33.156 20.1 32.226 19.0125 31.2405 18.462C30.5169 18.0739 29.7161 17.8515 28.896 17.811C28.734 17.8065 28.1715 17.6685 27.015 17.985C26.253 18.1935 24.5355 18.8685 24.063 18.8955C23.589 18.9225 22.179 18.1125 20.6625 17.898C19.692 17.7105 18.663 18.0945 17.9265 18.39C17.1915 18.684 15.7935 19.521 14.8155 21.7455C13.8375 23.9685 14.349 27.4905 14.715 28.5855C15.081 29.679 15.6525 31.4715 16.6245 32.7795C17.4885 34.2555 18.6345 35.28 19.113 35.628C19.5915 35.976 20.9415 36.207 21.8775 35.7285C22.6305 35.2665 23.9895 35.001 24.5265 35.0205C25.062 35.04 26.118 35.2515 27.1995 35.829C28.056 36.1245 28.866 36.0015 29.6775 35.6715C30.489 35.34 31.6635 34.083 33.0345 31.5345C33.555 30.3495 33.792 29.709 33.744 29.6115Z" fill="#1A1C22"/>
<path d="M28.773 12.012C28.722 11.955 26.8845 12.0345 25.2855 13.77C23.6865 15.504 23.9325 17.493 23.9685 17.544C24.0045 17.595 26.2485 17.6745 27.681 15.657C29.1135 13.6395 28.824 12.0705 28.773 12.012ZM33.744 29.6115C33.672 29.4675 30.2565 27.7605 30.5745 24.4785C30.8925 21.195 33.087 20.295 33.1215 20.1975C33.156 20.1 32.226 19.0125 31.2405 18.462C30.5169 18.0739 29.7161 17.8515 28.896 17.811C28.734 17.8065 28.1715 17.6685 27.015 17.985C26.253 18.1935 24.5355 18.8685 24.063 18.8955C23.589 18.9225 22.179 18.1125 20.6625 17.898C19.692 17.7105 18.663 18.0945 17.9265 18.39C17.1915 18.684 15.7935 19.521 14.8155 21.7455C13.8375 23.9685 14.349 27.4905 14.715 28.5855C15.081 29.679 15.6525 31.4715 16.6245 32.7795C17.4885 34.2555 18.6345 35.28 19.113 35.628C19.5915 35.976 20.9415 36.207 21.8775 35.7285C22.6305 35.2665 23.9895 35.001 24.5265 35.0205C25.062 35.04 26.118 35.2515 27.1995 35.829C28.056 36.1245 28.866 36.0015 29.6775 35.6715C30.489 35.34 31.6635 34.083 33.0345 31.5345C33.555 30.3495 33.792 29.709 33.744 29.6115Z" fill="#1A1C22"/>
</g>
<path d="M38.84 12.4H41.2C41.792 12.4 42.3173 12.5173 42.776 12.752C43.2347 12.9867 43.5893 13.3173 43.84 13.744C44.096 14.1653 44.224 14.6507 44.224 15.2C44.224 15.7493 44.096 16.2373 43.84 16.664C43.5893 17.0853 43.2347 17.4133 42.776 17.648C42.3173 17.8827 41.792 18 41.2 18H38.84V12.4ZM41.152 17.304C41.6053 17.304 42.0027 17.216 42.344 17.04C42.6907 16.864 42.9573 16.6187 43.144 16.304C43.3307 15.984 43.424 15.616 43.424 15.2C43.424 14.784 43.3307 14.4187 43.144 14.104C42.9573 13.784 42.6907 13.536 42.344 13.36C42.0027 13.184 41.6053 13.096 41.152 13.096H39.64V17.304H41.152ZM47.0334 18.048C46.612 18.048 46.2334 17.9547 45.8974 17.768C45.5614 17.5813 45.2974 17.3253 45.1054 17C44.9187 16.6693 44.8254 16.296 44.8254 15.88C44.8254 15.464 44.9187 15.0933 45.1054 14.768C45.2974 14.4373 45.5614 14.1813 45.8974 14C46.2334 13.8133 46.612 13.72 47.0334 13.72C47.4547 13.72 47.8307 13.8133 48.1614 14C48.4974 14.1813 48.7587 14.4373 48.9454 14.768C49.1374 15.0933 49.2334 15.464 49.2334 15.88C49.2334 16.296 49.1374 16.6693 48.9454 17C48.7587 17.3253 48.4974 17.5813 48.1614 17.768C47.8307 17.9547 47.4547 18.048 47.0334 18.048ZM47.0334 17.376C47.3054 17.376 47.548 17.3147 47.7614 17.192C47.98 17.064 48.1507 16.888 48.2734 16.664C48.396 16.4347 48.4574 16.1733 48.4574 15.88C48.4574 15.5867 48.396 15.328 48.2734 15.104C48.1507 14.8747 47.98 14.6987 47.7614 14.576C47.548 14.4533 47.3054 14.392 47.0334 14.392C46.7614 14.392 46.516 14.4533 46.2974 14.576C46.084 14.6987 45.9134 14.8747 45.7854 15.104C45.6627 15.328 45.6014 15.5867 45.6014 15.88C45.6014 16.1733 45.6627 16.4347 45.7854 16.664C45.9134 16.888 46.084 17.064 46.2974 17.192C46.516 17.3147 46.7614 17.376 47.0334 17.376ZM56.4743 13.76L54.8903 18H54.1543L52.9303 14.784L51.6903 18H50.9543L49.3783 13.76H50.1063L51.3383 17.136L52.6183 13.76H53.2663L54.5223 17.152L55.7863 13.76H56.4743ZM59.3976 13.72C59.9363 13.72 60.363 13.8773 60.6776 14.192C60.9976 14.5013 61.1576 14.9573 61.1576 15.56V18H60.3896V15.648C60.3896 15.2373 60.291 14.928 60.0936 14.72C59.8963 14.512 59.6136 14.408 59.2456 14.408C58.8296 14.408 58.5016 14.5307 58.2616 14.776C58.0216 15.016 57.9016 15.3627 57.9016 15.816V18H57.1336V13.76H57.8696V14.4C58.0243 14.1813 58.2323 14.0133 58.4936 13.896C58.7603 13.7787 59.0616 13.72 59.3976 13.72ZM62.4589 12.064H63.2269V18H62.4589V12.064ZM66.3893 18.048C65.968 18.048 65.5893 17.9547 65.2533 17.768C64.9173 17.5813 64.6533 17.3253 64.4613 17C64.2746 16.6693 64.1813 16.296 64.1813 15.88C64.1813 15.464 64.2746 15.0933 64.4613 14.768C64.6533 14.4373 64.9173 14.1813 65.2533 14C65.5893 13.8133 65.968 13.72 66.3893 13.72C66.8106 13.72 67.1866 13.8133 67.5173 14C67.8533 14.1813 68.1146 14.4373 68.3013 14.768C68.4933 15.0933 68.5893 15.464 68.5893 15.88C68.5893 16.296 68.4933 16.6693 68.3013 17C68.1146 17.3253 67.8533 17.5813 67.5173 17.768C67.1866 17.9547 66.8106 18.048 66.3893 18.048ZM66.3893 17.376C66.6613 17.376 66.904 17.3147 67.1173 17.192C67.336 17.064 67.5066 16.888 67.6293 16.664C67.752 16.4347 67.8133 16.1733 67.8133 15.88C67.8133 15.5867 67.752 15.328 67.6293 15.104C67.5066 14.8747 67.336 14.6987 67.1173 14.576C66.904 14.4533 66.6613 14.392 66.3893 14.392C66.1173 14.392 65.872 14.4533 65.6533 14.576C65.44 14.6987 65.2693 14.8747 65.1413 15.104C65.0186 15.328 64.9573 15.5867 64.9573 15.88C64.9573 16.1733 65.0186 16.4347 65.1413 16.664C65.2693 16.888 65.44 17.064 65.6533 17.192C65.872 17.3147 66.1173 17.376 66.3893 17.376ZM71.0364 13.72C71.623 13.72 72.071 13.864 72.3804 14.152C72.695 14.44 72.8524 14.8693 72.8524 15.44V18H72.1244V17.44C71.9964 17.6373 71.8124 17.7893 71.5724 17.896C71.3377 17.9973 71.0577 18.048 70.7324 18.048C70.2577 18.048 69.8764 17.9333 69.5884 17.704C69.3057 17.4747 69.1644 17.1733 69.1644 16.8C69.1644 16.4267 69.3004 16.128 69.5724 15.904C69.8444 15.6747 70.2764 15.56 70.8684 15.56H72.0844V15.408C72.0844 15.0773 71.9884 14.824 71.7964 14.648C71.6044 14.472 71.3217 14.384 70.9484 14.384C70.6977 14.384 70.4524 14.4267 70.2124 14.512C69.9724 14.592 69.7697 14.7013 69.6044 14.84L69.2844 14.264C69.503 14.088 69.7644 13.9547 70.0684 13.864C70.3724 13.768 70.695 13.72 71.0364 13.72ZM70.8604 17.456C71.1537 17.456 71.407 17.392 71.6204 17.264C71.8337 17.1307 71.9884 16.944 72.0844 16.704V16.112H70.9004C70.2497 16.112 69.9244 16.3307 69.9244 16.768C69.9244 16.9813 70.007 17.1493 70.1724 17.272C70.3377 17.3947 70.567 17.456 70.8604 17.456ZM78.1771 12.064V18H77.4411V17.328C77.2704 17.5627 77.0544 17.7413 76.7931 17.864C76.5317 17.9867 76.2437 18.048 75.9291 18.048C75.5184 18.048 75.1504 17.9573 74.8251 17.776C74.4997 17.5947 74.2437 17.3413 74.0571 17.016C73.8757 16.6853 73.7851 16.3067 73.7851 15.88C73.7851 15.4533 73.8757 15.0773 74.0571 14.752C74.2437 14.4267 74.4997 14.1733 74.8251 13.992C75.1504 13.8107 75.5184 13.72 75.9291 13.72C76.2331 13.72 76.5131 13.7787 76.7691 13.896C77.0251 14.008 77.2384 14.176 77.4091 14.4V12.064H78.1771ZM75.9931 17.376C76.2597 17.376 76.5024 17.3147 76.7211 17.192C76.9397 17.064 77.1104 16.888 77.2331 16.664C77.3557 16.4347 77.4171 16.1733 77.4171 15.88C77.4171 15.5867 77.3557 15.328 77.2331 15.104C77.1104 14.8747 76.9397 14.6987 76.7211 14.576C76.5024 14.4533 76.2597 14.392 75.9931 14.392C75.7211 14.392 75.4757 14.4533 75.2571 14.576C75.0437 14.6987 74.8731 14.8747 74.7451 15.104C74.6224 15.328 74.5611 15.5867 74.5611 15.88C74.5611 16.1733 74.6224 16.4347 74.7451 16.664C74.8731 16.888 75.0437 17.064 75.2571 17.192C75.4757 17.3147 75.7211 17.376 75.9931 17.376ZM83.3546 18.048C82.9333 18.048 82.5546 17.9547 82.2186 17.768C81.8826 17.5813 81.6186 17.3253 81.4266 17C81.24 16.6693 81.1466 16.296 81.1466 15.88C81.1466 15.464 81.24 15.0933 81.4266 14.768C81.6186 14.4373 81.8826 14.1813 82.2186 14C82.5546 13.8133 82.9333 13.72 83.3546 13.72C83.776 13.72 84.152 13.8133 84.4826 14C84.8186 14.1813 85.08 14.4373 85.2666 14.768C85.4586 15.0933 85.5546 15.464 85.5546 15.88C85.5546 16.296 85.4586 16.6693 85.2666 17C85.08 17.3253 84.8186 17.5813 84.4826 17.768C84.152 17.9547 83.776 18.048 83.3546 18.048ZM83.3546 17.376C83.6266 17.376 83.8693 17.3147 84.0826 17.192C84.3013 17.064 84.472 16.888 84.5946 16.664C84.7173 16.4347 84.7786 16.1733 84.7786 15.88C84.7786 15.5867 84.7173 15.328 84.5946 15.104C84.472 14.8747 84.3013 14.6987 84.0826 14.576C83.8693 14.4533 83.6266 14.392 83.3546 14.392C83.0826 14.392 82.8373 14.4533 82.6186 14.576C82.4053 14.6987 82.2346 14.8747 82.1066 15.104C81.984 15.328 81.9226 15.5867 81.9226 15.88C81.9226 16.1733 81.984 16.4347 82.1066 16.664C82.2346 16.888 82.4053 17.064 82.6186 17.192C82.8373 17.3147 83.0826 17.376 83.3546 17.376ZM88.7607 13.72C89.2994 13.72 89.7261 13.8773 90.0407 14.192C90.3607 14.5013 90.5207 14.9573 90.5207 15.56V18H89.7527V15.648C89.7527 15.2373 89.6541 14.928 89.4567 14.72C89.2594 14.512 88.9767 14.408 88.6087 14.408C88.1927 14.408 87.8647 14.5307 87.6247 14.776C87.3847 15.016 87.2647 15.3627 87.2647 15.816V18H86.4967V13.76H87.2327V14.4C87.3874 14.1813 87.5954 14.0133 87.8567 13.896C88.1234 13.7787 88.4247 13.72 88.7607 13.72ZM96.2345 17.752C96.1225 17.848 95.9838 17.9227 95.8185 17.976C95.6532 18.024 95.4825 18.048 95.3065 18.048C94.8798 18.048 94.5492 17.9333 94.3145 17.704C94.0798 17.4747 93.9625 17.1467 93.9625 16.72V14.392H93.2425V13.76H93.9625V12.832H94.7305V13.76H95.9465V14.392H94.7305V16.688C94.7305 16.9173 94.7865 17.0933 94.8985 17.216C95.0158 17.3387 95.1812 17.4 95.3945 17.4C95.6292 17.4 95.8292 17.3333 95.9945 17.2L96.2345 17.752ZM99.307 13.72C99.8457 13.72 100.272 13.8773 100.587 14.192C100.907 14.5013 101.067 14.9573 101.067 15.56V18H100.299V15.648C100.299 15.2373 100.2 14.928 100.003 14.72C99.8057 14.512 99.523 14.408 99.155 14.408C98.739 14.408 98.411 14.5307 98.171 14.776C97.931 15.016 97.811 15.3627 97.811 15.816V18H97.043V12.064H97.811V14.36C97.971 14.1573 98.179 14 98.435 13.888C98.6963 13.776 98.987 13.72 99.307 13.72ZM106.224 15.904C106.224 15.9627 106.218 16.04 106.208 16.136H102.768C102.816 16.5093 102.978 16.8107 103.256 17.04C103.538 17.264 103.888 17.376 104.304 17.376C104.81 17.376 105.218 17.2053 105.528 16.864L105.952 17.36C105.76 17.584 105.52 17.7547 105.232 17.872C104.949 17.9893 104.632 18.048 104.28 18.048C103.832 18.048 103.434 17.9573 103.088 17.776C102.741 17.5893 102.472 17.3307 102.28 17C102.093 16.6693 102 16.296 102 15.88C102 15.4693 102.09 15.0987 102.272 14.768C102.458 14.4373 102.712 14.1813 103.032 14C103.357 13.8133 103.722 13.72 104.128 13.72C104.533 13.72 104.893 13.8133 105.208 14C105.528 14.1813 105.776 14.4373 105.952 14.768C106.133 15.0987 106.224 15.4773 106.224 15.904ZM104.128 14.368C103.76 14.368 103.45 14.48 103.2 14.704C102.954 14.928 102.81 15.2213 102.768 15.584H105.488C105.445 15.2267 105.298 14.936 105.048 14.712C104.802 14.4827 104.496 14.368 104.128 14.368Z" fill="#1A1C22"/>
<path d="M45.672 30.732H40.772L39.806 33H37.93L42.34 23.2H44.132L48.556 33H46.652L45.672 30.732ZM45.07 29.304L43.222 25.02L41.388 29.304H45.07ZM53.5683 25.44C54.2963 25.44 54.945 25.5987 55.5143 25.916C56.093 26.2333 56.5457 26.6813 56.8723 27.26C57.199 27.8387 57.3623 28.506 57.3623 29.262C57.3623 30.018 57.199 30.69 56.8723 31.278C56.5457 31.8567 56.093 32.3047 55.5143 32.622C54.945 32.9393 54.2963 33.098 53.5683 33.098C52.5603 33.098 51.7623 32.762 51.1743 32.09V35.716H49.4243V25.524H51.0903V26.504C51.3797 26.1493 51.7343 25.8833 52.1543 25.706C52.5837 25.5287 53.055 25.44 53.5683 25.44ZM53.3723 31.6C54.0163 31.6 54.5437 31.3853 54.9543 30.956C55.3743 30.5267 55.5843 29.962 55.5843 29.262C55.5843 28.562 55.3743 27.9973 54.9543 27.568C54.5437 27.1387 54.0163 26.924 53.3723 26.924C52.9523 26.924 52.5743 27.022 52.2383 27.218C51.9023 27.4047 51.6363 27.6753 51.4403 28.03C51.2443 28.3847 51.1463 28.7953 51.1463 29.262C51.1463 29.7287 51.2443 30.1393 51.4403 30.494C51.6363 30.8487 51.9023 31.124 52.2383 31.32C52.5743 31.5067 52.9523 31.6 53.3723 31.6ZM62.956 25.44C63.684 25.44 64.3327 25.5987 64.902 25.916C65.4807 26.2333 65.9333 26.6813 66.26 27.26C66.5867 27.8387 66.75 28.506 66.75 29.262C66.75 30.018 66.5867 30.69 66.26 31.278C65.9333 31.8567 65.4807 32.3047 64.902 32.622C64.3327 32.9393 63.684 33.098 62.956 33.098C61.948 33.098 61.15 32.762 60.562 32.09V35.716H58.812V25.524H60.478V26.504C60.7673 26.1493 61.122 25.8833 61.542 25.706C61.9713 25.5287 62.4427 25.44 62.956 25.44ZM62.76 31.6C63.404 31.6 63.9313 31.3853 64.342 30.956C64.762 30.5267 64.972 29.962 64.972 29.262C64.972 28.562 64.762 27.9973 64.342 27.568C63.9313 27.1387 63.404 26.924 62.76 26.924C62.34 26.924 61.962 27.022 61.626 27.218C61.29 27.4047 61.024 27.6753 60.828 28.03C60.632 28.3847 60.534 28.7953 60.534 29.262C60.534 29.7287 60.632 30.1393 60.828 30.494C61.024 30.8487 61.29 31.124 61.626 31.32C61.962 31.5067 62.34 31.6 62.76 31.6ZM75.0648 33.14C74.3088 33.14 73.5761 33.0327 72.8668 32.818C72.1668 32.6033 71.6114 32.3187 71.2008 31.964L71.8308 30.55C72.2321 30.8673 72.7221 31.1287 73.3008 31.334C73.8888 31.53 74.4768 31.628 75.0648 31.628C75.7928 31.628 76.3341 31.5113 76.6888 31.278C77.0528 31.0447 77.2348 30.7367 77.2348 30.354C77.2348 30.074 77.1321 29.8453 76.9268 29.668C76.7308 29.4813 76.4788 29.3367 76.1708 29.234C75.8628 29.1313 75.4428 29.0147 74.9108 28.884C74.1641 28.7067 73.5574 28.5293 73.0908 28.352C72.6334 28.1747 72.2368 27.8993 71.9008 27.526C71.5741 27.1433 71.4108 26.63 71.4108 25.986C71.4108 25.4447 71.5554 24.9547 71.8448 24.516C72.1434 24.068 72.5868 23.7133 73.1748 23.452C73.7721 23.1907 74.5001 23.06 75.3588 23.06C75.9561 23.06 76.5441 23.1347 77.1228 23.284C77.7014 23.4333 78.2008 23.648 78.6208 23.928L78.0468 25.342C77.6174 25.09 77.1694 24.8987 76.7028 24.768C76.2361 24.6373 75.7834 24.572 75.3448 24.572C74.6261 24.572 74.0894 24.6933 73.7348 24.936C73.3894 25.1787 73.2168 25.5007 73.2168 25.902C73.2168 26.182 73.3148 26.4107 73.5108 26.588C73.7161 26.7653 73.9728 26.9053 74.2808 27.008C74.5888 27.1107 75.0088 27.2273 75.5408 27.358C76.2688 27.526 76.8661 27.7033 77.3328 27.89C77.7994 28.0673 78.1961 28.3427 78.5228 28.716C78.8588 29.0893 79.0268 29.5933 79.0268 30.228C79.0268 30.7693 78.8774 31.2593 78.5788 31.698C78.2894 32.1367 77.8461 32.4867 77.2488 32.748C76.6514 33.0093 75.9234 33.14 75.0648 33.14ZM84.9475 32.594C84.7421 32.762 84.4901 32.888 84.1915 32.972C83.9021 33.056 83.5941 33.098 83.2675 33.098C82.4461 33.098 81.8115 32.8833 81.3635 32.454C80.9155 32.0247 80.6915 31.3993 80.6915 30.578V26.98H79.4595V25.58H80.6915V23.872H82.4415V25.58H84.4435V26.98H82.4415V30.536C82.4415 30.9 82.5301 31.18 82.7075 31.376C82.8848 31.5627 83.1415 31.656 83.4775 31.656C83.8695 31.656 84.1961 31.5533 84.4575 31.348L84.9475 32.594ZM89.291 33.098C88.535 33.098 87.8536 32.9347 87.247 32.608C86.6403 32.2813 86.1643 31.8287 85.819 31.25C85.483 30.662 85.315 29.9993 85.315 29.262C85.315 28.5247 85.483 27.8667 85.819 27.288C86.1643 26.7093 86.6403 26.2567 87.247 25.93C87.8536 25.6033 88.535 25.44 89.291 25.44C90.0563 25.44 90.7423 25.6033 91.349 25.93C91.9556 26.2567 92.427 26.7093 92.763 27.288C93.1083 27.8667 93.281 28.5247 93.281 29.262C93.281 29.9993 93.1083 30.662 92.763 31.25C92.427 31.8287 91.9556 32.2813 91.349 32.608C90.7423 32.9347 90.0563 33.098 89.291 33.098ZM89.291 31.6C89.935 31.6 90.467 31.3853 90.887 30.956C91.307 30.5267 91.517 29.962 91.517 29.262C91.517 28.562 91.307 27.9973 90.887 27.568C90.467 27.1387 89.935 26.924 89.291 26.924C88.647 26.924 88.115 27.1387 87.695 27.568C87.2843 27.9973 87.079 28.562 87.079 29.262C87.079 29.962 87.2843 30.5267 87.695 30.956C88.115 31.3853 88.647 31.6 89.291 31.6ZM96.4104 26.616C96.9144 25.832 97.8011 25.44 99.0704 25.44V27.106C98.9211 27.078 98.7857 27.064 98.6644 27.064C97.9831 27.064 97.4511 27.2647 97.0684 27.666C96.6857 28.058 96.4944 28.6273 96.4944 29.374V33H94.7444V25.524H96.4104V26.616ZM107.305 29.304C107.305 29.4253 107.295 29.598 107.277 29.822H101.411C101.513 30.3727 101.779 30.8113 102.209 31.138C102.647 31.4553 103.189 31.614 103.833 31.614C104.654 31.614 105.331 31.3433 105.863 30.802L106.801 31.88C106.465 32.2813 106.04 32.5847 105.527 32.79C105.013 32.9953 104.435 33.098 103.791 33.098C102.969 33.098 102.246 32.9347 101.621 32.608C100.995 32.2813 100.51 31.8287 100.165 31.25C99.8286 30.662 99.6606 29.9993 99.6606 29.262C99.6606 28.534 99.8239 27.8807 100.151 27.302C100.487 26.714 100.949 26.2567 101.537 25.93C102.125 25.6033 102.787 25.44 103.525 25.44C104.253 25.44 104.901 25.6033 105.471 25.93C106.049 26.2473 106.497 26.7 106.815 27.288C107.141 27.8667 107.305 28.5387 107.305 29.304ZM103.525 26.84C102.965 26.84 102.489 27.008 102.097 27.344C101.714 27.6707 101.481 28.1093 101.397 28.66H105.639C105.564 28.1187 105.335 27.68 104.953 27.344C104.57 27.008 104.094 26.84 103.525 26.84Z" fill="#1A1C22"/>
<defs>
<clipPath id="clip0_39_47">
<rect width="24" height="24" fill="white" transform="translate(12 12)"/>
</clipPath>
</defs>
</svg>
