<svg width="56" height="53" viewBox="0 0 56 53" fill="none" xmlns="http://www.w3.org/2000/svg">
<path d="M13.4575 4C11.774 4 10.5 5.309 10.5 6.814V11H7V6.814C7 3.279 9.94 0.5 13.4575 0.5H49.5425C53.06 0.5 56 3.279 56 6.814V32.686C56 36.221 53.06 39 49.5425 39H28V35.5H49.5425C51.226 35.5 52.5 34.191 52.5 32.686V6.814C52.5 5.309 51.226 4 49.5425 4H13.4575ZM28 32H36.75C37.2141 32 37.6592 31.8156 37.9874 31.4874C38.3156 31.1592 38.5 30.7141 38.5 30.25C38.5 29.7859 38.3156 29.3407 37.9874 29.0126C37.6592 28.6844 37.2141 28.5 36.75 28.5H28V32ZM10.5 42.5C10.0359 42.5 9.59075 42.6844 9.26256 43.0126C8.93437 43.3407 8.75 43.7859 8.75 44.25C8.75 44.7141 8.93437 45.1592 9.26256 45.4874C9.59075 45.8156 10.0359 46 10.5 46H14C14.4641 46 14.9092 45.8156 15.2374 45.4874C15.5656 45.1592 15.75 44.7141 15.75 44.25C15.75 43.7859 15.5656 43.3407 15.2374 43.0126C14.9092 42.6844 14.4641 42.5 14 42.5H10.5ZM0 19.75C0 18.3576 0.553124 17.0223 1.53769 16.0377C2.52226 15.0531 3.85761 14.5 5.25 14.5H19.25C20.6424 14.5 21.9777 15.0531 22.9623 16.0377C23.9469 17.0223 24.5 18.3576 24.5 19.75V47.75C24.5 49.1424 23.9469 50.4777 22.9623 51.4623C21.9777 52.4469 20.6424 53 19.25 53H5.25C3.85761 53 2.52226 52.4469 1.53769 51.4623C0.553124 50.4777 0 49.1424 0 47.75V19.75ZM5.25 18C4.78587 18 4.34075 18.1844 4.01256 18.5126C3.68437 18.8407 3.5 19.2859 3.5 19.75V47.75C3.5 48.2141 3.68437 48.6592 4.01256 48.9874C4.34075 49.3156 4.78587 49.5 5.25 49.5H19.25C19.7141 49.5 20.1592 49.3156 20.4874 48.9874C20.8156 48.6592 21 48.2141 21 47.75V19.75C21 19.2859 20.8156 18.8407 20.4874 18.5126C20.1592 18.1844 19.7141 18 19.25 18H5.25Z" fill="#FEF4F4"/>
</svg>
