<svg width="128" height="48" viewBox="0 0 128 48" fill="none" xmlns="http://www.w3.org/2000/svg">
<rect width="128" height="48" rx="15" fill="#FEF4F4"/>
<g clip-path="url(#clip0_39_48)">
<path d="M28.5117 27.6616C31.3499 26.101 33.5017 24.912 33.6871 24.8196C34.2802 24.5036 34.893 23.6674 33.6871 23.018C33.2978 22.8138 31.2014 21.6616 28.5117 20.176L24.7833 23.9465L28.5115 27.6616H28.5117Z" fill="#FFD900"/>
<path d="M24.7833 23.9465L12.9111 35.928C13.1896 35.965 13.5042 35.891 13.8753 35.6868C14.6541 35.2601 22.9091 30.7457 28.5119 27.6625L24.7833 23.9465Z" fill="#F43249"/>
<path d="M24.7833 23.9465L28.5115 20.1943C28.5115 20.1943 14.7104 12.6524 13.8752 12.2074C13.5609 12.0203 13.2083 11.965 12.8929 12.0203L24.7833 23.9463V23.9465Z" fill="#00EE76"/>
<path d="M24.7833 23.9465L12.8927 12.0205C12.4101 12.1322 12.0022 12.5591 12.0022 13.4318V34.516C12.0022 35.3154 12.3178 35.8909 12.9109 35.9463L24.7831 23.9463L24.7833 23.9465Z" fill="#00D3FF"/>
<path d="M63.4989 24.346C61.3658 24.346 59.6033 25.999 59.6033 28.2654C59.6033 30.5132 61.3473 32.1847 63.4991 32.1847C65.6507 32.1847 67.3945 30.5317 67.3945 28.2654C67.3945 25.999 65.6507 24.346 63.4989 24.346ZM63.4989 30.6251C62.33 30.6251 61.3103 29.6403 61.3103 28.2479C61.3103 26.8361 62.3308 25.8706 63.4989 25.8706C64.667 25.8706 65.6875 26.8361 65.6875 28.2479C65.6875 29.6403 64.667 30.6251 63.4989 30.6251ZM55.0214 24.346C52.8696 24.346 51.1257 25.999 51.1257 28.2654C51.1257 30.5132 52.8696 32.1847 55.0214 32.1847C57.1731 32.1847 58.917 30.5317 58.917 28.2654C58.917 25.999 57.1731 24.346 55.0212 24.346H55.0214ZM55.0214 30.6251C53.8523 30.6251 52.8329 29.6403 52.8329 28.2479C52.8329 26.8361 53.8533 25.8706 55.0214 25.8706C56.1904 25.8706 57.21 26.8361 57.21 28.2479C57.21 29.6403 56.2078 30.6251 55.0214 30.6251ZM44.9485 25.5536V27.2065H48.8808C48.7691 28.1352 48.4547 28.8224 47.9906 29.2872C47.4158 29.8628 46.5253 30.4947 44.9485 30.4947C42.518 30.4947 40.6451 28.5259 40.6451 26.0923C40.6451 23.6588 42.519 21.6527 44.9485 21.6527C46.2651 21.6527 47.2118 22.173 47.9166 22.842L49.0848 21.6713C48.1013 20.7243 46.7847 20 44.9485 20C41.6275 20 38.8448 22.7301 38.8448 26.0553C38.8448 29.3807 41.6275 32.1108 44.9485 32.1108C46.7477 32.1108 48.0838 31.5167 49.1595 30.4016C50.2539 29.3057 50.5878 27.7636 50.5878 26.5193C50.5878 26.1294 50.5511 25.7763 50.4948 25.4789L44.9485 25.5536ZM86.1675 26.8351C85.8519 25.962 84.8507 24.346 82.8466 24.346C80.8426 24.346 79.1919 25.9252 79.1919 28.2654C79.1919 30.4569 80.8426 32.1847 83.0322 32.1847C84.8129 32.1847 85.8334 31.0888 86.2597 30.4569L84.9431 29.5654C84.4975 30.2159 83.9042 30.6426 83.0322 30.6426C82.1602 30.6426 81.5485 30.2527 81.1583 29.4536L86.3337 27.2805L86.1675 26.8351ZM80.8989 28.1545C80.8621 26.6494 82.068 25.8696 82.9205 25.8696C83.607 25.8696 84.1636 26.204 84.3673 26.7058L80.8989 28.1545ZM76.6879 31.9249H78.3949V20.4452H76.6879V31.9249ZM73.906 25.2192H73.8505C73.4612 24.7544 72.7379 24.346 71.8096 24.346C69.8617 24.346 68.0995 26.0738 68.0995 28.2654C68.0995 30.4569 69.8802 32.1664 71.8096 32.1664C72.7369 32.1664 73.4604 31.7578 73.8505 31.2745H73.906V31.8318C73.906 33.3369 73.1077 34.135 71.8281 34.135C70.7892 34.135 70.1396 33.3737 69.8802 32.7418L68.3967 33.3737C68.8228 34.414 69.955 35.6956 71.8281 35.6956C73.8312 35.6956 75.5197 34.5066 75.5197 31.6276V24.5873H73.906V25.2192ZM71.9581 30.6251C70.7892 30.6251 69.8065 29.6403 69.8065 28.2664C69.8065 26.8925 70.79 25.8889 71.9581 25.8889C73.1088 25.8889 74.036 26.8925 74.036 28.2664C74.0352 29.6218 73.1077 30.6251 71.9581 30.6251ZM94.1256 20.4454H90.0446V31.9249H91.7516V27.5779H94.1256C96.0181 27.5779 97.8727 26.203 97.8727 24.0117C97.8727 21.8201 96.0181 20.4452 94.1256 20.4452V20.4454ZM94.1809 25.9815H91.7691V22.0426H94.1809C95.4422 22.0426 96.1842 23.1015 96.1842 24.0115C96.1665 24.9031 95.4432 25.9815 94.1809 25.9815ZM104.681 24.3275C103.457 24.3275 102.177 24.8663 101.657 26.0923L103.16 26.7243C103.495 26.0923 104.088 25.8881 104.719 25.8881C105.609 25.8881 106.5 26.4267 106.518 27.3737V27.4856C106.203 27.2999 105.554 27.0393 104.737 27.0393C103.105 27.0393 101.453 27.9495 101.453 29.6218C101.453 31.1637 102.79 32.1479 104.273 32.1479C105.424 32.1479 106.054 31.6276 106.443 31.015H106.499V31.9066H108.149V27.5039C108.131 25.4795 106.629 24.3273 104.681 24.3273V24.3275ZM104.477 30.6066C103.921 30.6066 103.141 30.3275 103.141 29.6411C103.141 28.7494 104.105 28.4151 104.94 28.4151C105.682 28.4151 106.035 28.5822 106.499 28.8049C106.369 29.8638 105.46 30.6066 104.477 30.6066ZM114.105 24.5883L112.157 29.5477H112.101L110.08 24.5881H108.244L111.286 31.535L109.56 35.4176H111.341L115.997 24.5881H114.104L114.105 24.5883ZM98.8192 31.9249H100.526V20.4452H98.8192V31.9249Z" fill="#1A1C22"/>
<path d="M43.448 15.112H44.632V17.384C44.328 17.6133 43.976 17.7893 43.576 17.912C43.176 18.0347 42.7733 18.096 42.368 18.096C41.7867 18.096 41.264 17.9733 40.8 17.728C40.336 17.4773 39.9707 17.1333 39.704 16.696C39.4427 16.2533 39.312 15.7547 39.312 15.2C39.312 14.6453 39.4427 14.1493 39.704 13.712C39.9707 13.2693 40.3387 12.9253 40.808 12.68C41.2773 12.4293 41.8053 12.304 42.392 12.304C42.8827 12.304 43.328 12.3867 43.728 12.552C44.128 12.7173 44.464 12.9573 44.736 13.272L43.904 14.04C43.504 13.6187 43.0213 13.408 42.456 13.408C42.0987 13.408 41.7813 13.4827 41.504 13.632C41.2267 13.7813 41.0107 13.992 40.856 14.264C40.7013 14.536 40.624 14.848 40.624 15.2C40.624 15.5467 40.7013 15.856 40.856 16.128C41.0107 16.4 41.224 16.6133 41.496 16.768C41.7733 16.9173 42.088 16.992 42.44 16.992C42.8133 16.992 43.1493 16.912 43.448 16.752V15.112ZM50.0519 16.96V18H45.7159V12.4H49.9479V13.44H47.0039V14.656H49.6039V15.664H47.0039V16.96H50.0519ZM52.1231 13.456H50.3311V12.4H55.2111V13.456H53.4191V18H52.1231V13.456ZM57.934 12.4H59.23V18H57.934V12.4ZM61.599 13.456H59.807V12.4H64.687V13.456H62.895V18H61.599V13.456ZM70.1219 18.096C69.5406 18.096 69.0153 17.9707 68.5459 17.72C68.0819 17.4693 67.7166 17.1253 67.4499 16.688C67.1886 16.2453 67.0579 15.7493 67.0579 15.2C67.0579 14.6507 67.1886 14.1573 67.4499 13.72C67.7166 13.2773 68.0819 12.9307 68.5459 12.68C69.0153 12.4293 69.5406 12.304 70.1219 12.304C70.7033 12.304 71.2259 12.4293 71.6899 12.68C72.1539 12.9307 72.5193 13.2773 72.7859 13.72C73.0526 14.1573 73.1859 14.6507 73.1859 15.2C73.1859 15.7493 73.0526 16.2453 72.7859 16.688C72.5193 17.1253 72.1539 17.4693 71.6899 17.72C71.2259 17.9707 70.7033 18.096 70.1219 18.096ZM70.1219 16.992C70.4526 16.992 70.7513 16.9173 71.0179 16.768C71.2846 16.6133 71.4926 16.4 71.6419 16.128C71.7966 15.856 71.8739 15.5467 71.8739 15.2C71.8739 14.8533 71.7966 14.544 71.6419 14.272C71.4926 14 71.2846 13.7893 71.0179 13.64C70.7513 13.4853 70.4526 13.408 70.1219 13.408C69.7913 13.408 69.4926 13.4853 69.2259 13.64C68.9593 13.7893 68.7486 14 68.5939 14.272C68.4446 14.544 68.3699 14.8533 68.3699 15.2C68.3699 15.5467 68.4446 15.856 68.5939 16.128C68.7486 16.4 68.9593 16.6133 69.2259 16.768C69.4926 16.9173 69.7913 16.992 70.1219 16.992ZM79.1759 12.4V18H78.1119L75.3199 14.6V18H74.0399V12.4H75.1119L77.8959 15.8V12.4H79.1759Z" fill="#1A1C22"/>
</g>
<defs>
<clipPath id="clip0_39_48">
<rect width="104" height="24" fill="white" transform="translate(12 12)"/>
</clipPath>
</defs>
</svg>
