<svg width="60" height="60" viewBox="0 0 60 60" fill="none" xmlns="http://www.w3.org/2000/svg">
<path d="M53.3333 0.833374H6.66667C5.11957 0.833374 3.63584 1.44796 2.54188 2.54192C1.44792 3.63588 0.833336 5.11961 0.833336 6.66671V41.6667C0.833336 43.2138 1.44792 44.6975 2.54188 45.7915C3.63584 46.8855 5.11957 47.5 6.66667 47.5H24.1667V53.3334H15.4167V59.1667H44.5833V53.3334H35.8333V47.5H53.3333C54.8804 47.5 56.3642 46.8855 57.4581 45.7915C58.5521 44.6975 59.1667 43.2138 59.1667 41.6667V6.66671C59.1667 5.11961 58.5521 3.63588 57.4581 2.54192C56.3642 1.44796 54.8804 0.833374 53.3333 0.833374ZM53.3333 41.6667H6.66667V6.66671H53.3333V41.6667ZM43.8542 32.9167C43.8542 34.2704 43.3164 35.5687 42.3592 36.5259C41.402 37.4831 40.1037 38.0209 38.75 38.0209C37.3963 38.0209 36.098 37.4831 35.1408 36.5259C34.1836 35.5687 33.6458 34.2704 33.6458 32.9167L24.1667 28.1334C23.4285 28.7016 22.5459 29.0518 21.619 29.1442C20.692 29.2366 19.7577 29.0675 18.9219 28.6562C18.086 28.2448 17.3821 27.6076 16.8899 26.8167C16.3977 26.0258 16.1368 25.1129 16.1368 24.1813C16.1368 23.2497 16.3977 22.3368 16.8899 21.5459C17.3821 20.755 18.086 20.1178 18.9219 19.7064C19.7577 19.295 20.692 19.126 21.619 19.2184C22.5459 19.3108 23.4285 19.6609 24.1667 20.2292L33.6458 15.4167C33.6295 14.2464 34.0113 13.1053 34.7287 12.1805C35.4461 11.2557 36.4564 10.6021 37.594 10.3269C38.7317 10.0517 39.929 10.1713 40.9898 10.6659C42.0505 11.1606 42.9117 12.0011 43.432 13.0494C43.9524 14.0978 44.1011 15.2919 43.8537 16.4359C43.6063 17.5799 42.9775 18.6058 42.0704 19.3455C41.1634 20.0852 40.0319 20.4947 38.8615 20.5069C37.6912 20.5191 36.5514 20.1332 35.6292 19.4125L26.2375 24.1667L35.6292 28.8625C36.382 28.2664 37.2884 27.8961 38.2433 27.7946C39.1981 27.6931 40.1622 27.8646 41.0235 28.2891C41.8848 28.7137 42.6079 29.3738 43.109 30.193C43.6101 31.0121 43.8685 31.9566 43.8542 32.9167Z" fill="#FEF4F4"/>
</svg>
